<?xml version="1.0" encoding="utf-8"?>
<!-- Generator: Adobe Illustrator 26.5.0, SVG Export Plug-In . SVG Version: 6.00 Build 0)  -->
<svg version="1.1" id="Слой_1" xmlns="http://www.w3.org/2000/svg" xmlns:xlink="http://www.w3.org/1999/xlink" x="0px" y="0px"
	 viewBox="0 0 16 16" style="enable-background:new 0 0 16 16;" xml:space="preserve">
<style type="text/css">
	.st0{fill-rule:evenodd;clip-rule:evenodd;fill:#FFFFFF;}
	.st1{fill:#FFFFFF;}
</style>
<path class="st0" d="M0,2c0-0.5,0-0.7,0.1-0.9c0.1-0.5,0.5-0.9,1.1-1.1C1.3,0,1.5,0,2,0s0.7,0,0.9,0.1c0.5,0.1,0.9,0.5,1.1,1.1
	C4,1.3,4,1.5,4,2s0,0.7-0.1,0.9C3.8,3.4,3.4,3.8,2.9,3.9C2.7,4,2.5,4,2,4S1.3,4,1.1,3.9C0.6,3.8,0.2,3.4,0.1,2.9C0,2.7,0,2.5,0,2z
	 M2,3C1.8,3,1.6,3,1.5,3C1.4,3,1.4,3,1.4,3C1.2,2.9,1.1,2.8,1,2.6c0,0,0,0,0-0.1C1,2.4,1,2.2,1,2c0-0.2,0-0.4,0-0.5
	c0-0.1,0-0.1,0-0.1c0-0.2,0.2-0.3,0.4-0.4c0,0,0,0,0.1,0C1.6,1,1.8,1,2,1s0.4,0,0.5,0c0.1,0,0.1,0,0.1,0c0.2,0,0.3,0.2,0.4,0.4
	c0,0,0,0,0,0.1C3,1.6,3,1.8,3,2c0,0.2,0,0.4,0,0.5c0,0.1,0,0.1,0,0.1c0,0.2-0.2,0.3-0.4,0.4c0,0,0,0-0.1,0C2.4,3,2.2,3,2,3z"/>
<path class="st0" d="M0,8c0-0.5,0-0.7,0.1-0.9c0.1-0.5,0.5-0.9,1.1-1.1C1.3,6,1.5,6,2,6s0.7,0,0.9,0.1c0.5,0.1,0.9,0.5,1.1,1.1
	C4,7.3,4,7.5,4,8s0,0.7-0.1,0.9C3.8,9.4,3.4,9.8,2.9,9.9C2.7,10,2.5,10,2,10s-0.7,0-0.9-0.1C0.6,9.8,0.2,9.4,0.1,8.9
	C0,8.7,0,8.5,0,8z M2,9C1.8,9,1.6,9,1.5,9C1.4,9,1.4,9,1.4,9C1.2,8.9,1.1,8.8,1,8.6c0,0,0,0,0-0.1C1,8.4,1,8.2,1,8
	c0-0.2,0-0.4,0-0.5c0-0.1,0-0.1,0-0.1c0-0.2,0.2-0.3,0.4-0.4c0,0,0,0,0.1,0C1.6,7,1.8,7,2,7s0.4,0,0.5,0c0.1,0,0.1,0,0.1,0
	c0.2,0,0.3,0.2,0.4,0.4c0,0,0,0,0,0.1C3,7.6,3,7.8,3,8c0,0.2,0,0.4,0,0.5c0,0.1,0,0.1,0,0.1c0,0.2-0.2,0.3-0.4,0.4c0,0,0,0-0.1,0
	C2.4,9,2.2,9,2,9z"/>
<path class="st0" d="M0.1,13.1C0,13.3,0,13.5,0,14s0,0.7,0.1,0.9c0.1,0.5,0.5,0.9,1.1,1.1C1.3,16,1.5,16,2,16s0.7,0,0.9-0.1
	c0.5-0.1,0.9-0.5,1.1-1.1C4,14.7,4,14.5,4,14s0-0.7-0.1-0.9c-0.1-0.5-0.5-0.9-1.1-1.1C2.7,12,2.5,12,2,12S1.3,12,1.1,12
	C0.6,12.2,0.2,12.6,0.1,13.1z M1.5,15c0.1,0,0.3,0,0.5,0s0.4,0,0.5,0c0.1,0,0.1,0,0.1,0c0.2,0,0.3-0.2,0.4-0.4c0,0,0,0,0-0.1
	c0-0.1,0-0.3,0-0.5s0-0.4,0-0.5c0-0.1,0-0.1,0-0.1c0-0.2-0.2-0.3-0.4-0.4c0,0,0,0-0.1,0c-0.1,0-0.3,0-0.5,0s-0.4,0-0.5,0
	c-0.1,0-0.1,0-0.1,0c-0.2,0-0.3,0.2-0.4,0.4c0,0,0,0,0,0.1c0,0.1,0,0.3,0,0.5s0,0.4,0,0.5c0,0.1,0,0.1,0,0.1c0,0.2,0.2,0.3,0.4,0.4
	C1.4,15,1.4,15,1.5,15L1.5,15z"/>
<path class="st1" d="M6.5,2C6.2,2,6,2.2,6,2.5S6.2,3,6.5,3h9C15.8,3,16,2.8,16,2.5S15.8,2,15.5,2H6.5z"/>
<path class="st1" d="M6,8.5C6,8.2,6.2,8,6.5,8h9C15.8,8,16,8.2,16,8.5S15.8,9,15.5,9h-9C6.2,9,6,8.8,6,8.5z"/>
<path class="st1" d="M6.5,14C6.2,14,6,14.2,6,14.5S6.2,15,6.5,15h9c0.3,0,0.5-0.2,0.5-0.5S15.8,14,15.5,14H6.5z"/>
</svg>
