<?xml version="1.0" encoding="utf-8"?>
<!-- Generator: Adobe Illustrator 26.5.0, SVG Export Plug-In . SVG Version: 6.00 Build 0)  -->
<svg version="1.1" id="Слой_1" xmlns="http://www.w3.org/2000/svg" xmlns:xlink="http://www.w3.org/1999/xlink" x="0px" y="0px"
	 viewBox="0 0 16 16" style="enable-background:new 0 0 16 16;" xml:space="preserve">
<style type="text/css">
	.st0{fill-rule:evenodd;clip-rule:evenodd;fill:#FFFFFF;}
</style>
<g id="Слой_1_00000181067057990167525010000005563308526956132539_">
	<path class="st0" d="M4,1C2.9,1,2,1.9,2,3v10c0,1.1,0.9,2,2,2h8c1.1,0,2-0.9,2-2V5.5c0-0.1-0.1-0.3-0.1-0.4l-4-4
		C9.8,1.1,9.6,1,9.5,1H4z M3,3c0-0.6,0.4-1,1-1h5v3.5C9,5.8,9.2,6,9.5,6H13v7c0,0.6-0.4,1-1,1H4c-0.6,0-1-0.4-1-1V3z M12.3,5L10,2.7
		V5H12.3z"/>
</g>
<g id="Слой_2_00000054959700013337839520000017378029060846963903_">
	<path class="st0" d="M7.7,5.9C7.8,5.9,8,6,8.1,6.1C8.4,6.5,8.4,7,8.3,7.6c0,0.2,0,0.4,0.1,0.6C8.6,8.4,8.8,8.7,9,9
		c0.2,0.2,0.4,0.3,0.7,0.3c0.2,0,0.4,0,0.6,0c0.9,0,0.8,0.3,0.9,0.6c0,0.2,0,0.3-0.1,0.5s-0.4,0.2-0.7,0.2c-0.4,0-0.5-0.1-0.9-0.2
		c-0.2-0.1-0.4-0.1-0.6,0c-0.4,0.1-1,0.3-1.5,0.3c-0.3,0-0.5,0.2-0.7,0.4c-0.4,0.5-0.7,1-1.3,1c-0.1,0-0.3-0.1-0.4-0.2
		c-0.2-0.2-0.2-0.3-0.2-0.6c0.1-0.6,0.9-1,1.4-1.3c0.1-0.1,0.2-0.2,0.3-0.3l0.7-1.6c0,0.1,0-0.1,0-0.2C7.1,7.4,7,6.4,7.4,6
		C7.4,5.9,7.5,5.9,7.7,5.9L7.7,5.9z M7.8,8.2c-0.3,0.9-0.8,1.9-0.9,2c0.6-0.3,1.9-0.5,1.9-0.5C8.2,9.1,7.8,8.2,7.8,8.2L7.8,8.2z"/>
</g>
</svg>
