<?xml version="1.0" encoding="utf-8"?>
<!-- Generator: Adobe Illustrator 26.5.0, SVG Export Plug-In . SVG Version: 6.00 Build 0)  -->
<svg version="1.1" id="Слой_1" xmlns="http://www.w3.org/2000/svg" xmlns:xlink="http://www.w3.org/1999/xlink" x="0px" y="0px"
	 viewBox="0 0 16 16" style="enable-background:new 0 0 16 16;" xml:space="preserve">
<style type="text/css">
	.st0{fill-rule:evenodd;clip-rule:evenodd;}
</style>
<path class="st0" d="M13,4.6C13,4.5,13,4.5,13,4.6c0-0.1,0-0.2,0-0.2c0,0,0,0,0-0.1c0-0.2-0.1-0.3-0.2-0.4c-0.1-0.2-0.2-0.3-0.5-0.5
	L9.7,0.7C9.5,0.4,9.3,0.3,9.2,0.2C9,0.1,8.9,0.1,8.7,0c0,0,0,0-0.1,0C8.6,0,8.6,0,8.5,0c0,0,0,0-0.1,0C8.3,0,8.2,0,8,0H4.8
	C3.1,0,2.3,0,1.6,0.3c-0.6,0.3-1,0.7-1.3,1.3C0,2.3,0,3.1,0,4.8v6.4c0,1.7,0,2.5,0.3,3.2c0.3,0.6,0.7,1,1.3,1.3
	C2.3,16,3.1,16,4.8,16c2.2,0,5.3,0,1.2,0v-1H4.8c-0.9,0-1.4,0-1.9,0c-0.4,0-0.7-0.1-0.8-0.2c-0.4-0.2-0.7-0.5-0.9-0.9
	c-0.1-0.2-0.1-0.4-0.2-0.8c0-0.4,0-1,0-1.9V4.8c0-0.9,0-1.4,0-1.9c0-0.4,0.1-0.7,0.2-0.8c0.2-0.4,0.5-0.7,0.9-0.9
	C2.3,1.1,2.5,1.1,2.9,1c0.5,0,1,0,1.9,0H8v3.5C8,4.8,8.2,5,8.5,5H13v0C13,4.8,13,4.7,13,4.6L13,4.6z M9,1.4L11.6,4H9V1.4z"/>
<path d="M11.5,7C11.8,7,12,7.2,12,7.5V11h3.5c0.3,0,0.5,0.2,0.5,0.5S15.8,12,15.5,12H12v3.5c0,0.3-0.2,0.5-0.5,0.5S11,15.8,11,15.5
	V12H7.5C7.2,12,7,11.8,7,11.5S7.2,11,7.5,11H11V7.5C11,7.2,11.2,7,11.5,7z"/>
</svg>
