<?xml version="1.0" encoding="utf-8"?>
<!-- Generator: Adobe Illustrator 26.5.0, SVG Export Plug-In . SVG Version: 6.00 Build 0)  -->
<svg version="1.1" id="calendar-16px" xmlns="http://www.w3.org/2000/svg" xmlns:xlink="http://www.w3.org/1999/xlink" x="0px"
	 y="0px" viewBox="0 0 800 800" style="enable-background:new 0 0 800 800;" xml:space="preserve">
<path id="Path_159" d="M675,100h-25V25c0-13.8-11.2-25-25-25s-25,11.2-25,25v75H200V25c0-13.8-11.2-25-25-25s-25,11.2-25,25v75h-25
	C56,100,0,156,0,225v450c0,69,56,125,125,125h550c69,0,125-56,125-125V225C800,156,744,100,675,100z M675,150c41.4,0,75,33.6,75,75
	v25H650V150H675z M600,150v100H200V150H600z M125,150h25v100H50v-25C50,183.6,83.6,150,125,150z M675,750H125c-41.4,0-75-33.6-75-75
	V300h700v375C750,716.4,716.4,750,675,750z M200,525c0,13.8-11.2,25-25,25s-25-11.2-25-25c0-13.8,11.2-25,25-25S200,511.2,200,525z
	 M200,675c0,13.8-11.2,25-25,25s-25-11.2-25-25s11.2-25,25-25S200,661.2,200,675z M350,375c0,13.8-11.2,25-25,25s-25-11.2-25-25
	s11.2-25,25-25S350,361.2,350,375z M350,525c0,13.8-11.2,25-25,25s-25-11.2-25-25c0-13.8,11.2-25,25-25S350,511.2,350,525z M350,675
	c0,13.8-11.2,25-25,25s-25-11.2-25-25s11.2-25,25-25S350,661.2,350,675z M500,375c0,13.8-11.2,25-25,25s-25-11.2-25-25
	s11.2-25,25-25S500,361.2,500,375z M500,525c0,13.8-11.2,25-25,25s-25-11.2-25-25c0-13.8,11.2-25,25-25S500,511.2,500,525z M500,675
	c0,13.8-11.2,25-25,25s-25-11.2-25-25s11.2-25,25-25S500,661.2,500,675z M650,375c0,13.8-11.2,25-25,25s-25-11.2-25-25
	s11.2-25,25-25S650,361.2,650,375z M650,525c0,13.8-11.2,25-25,25s-25-11.2-25-25c0-13.8,11.2-25,25-25S650,511.2,650,525z"/>
</svg>
