<?xml version="1.0" encoding="utf-8"?>
<!-- Generator: Adobe Illustrator 26.5.0, SVG Export Plug-In . SVG Version: 6.00 Build 0)  -->
<svg version="1.1" id="Слой_1" xmlns="http://www.w3.org/2000/svg" xmlns:xlink="http://www.w3.org/1999/xlink" x="0px" y="0px"
	 viewBox="0 0 16 16" style="enable-background:new 0 0 16 16;" xml:space="preserve">
<style type="text/css">
	.st0{fill-rule:evenodd;clip-rule:evenodd;}
</style>
<path class="st0" d="M4.2,4.2C4.3,4,4.7,4,4.9,4.2L8,7.3l3.1-3.2c0.2-0.2,0.5-0.2,0.7,0c0.2,0.2,0.2,0.5,0,0.7L8.7,8l3.1,3.1
	c0.2,0.2,0.2,0.5,0,0.7s-0.5,0.2-0.7,0L8,8.7l-3.2,3.1c-0.2,0.2-0.5,0.2-0.7,0c-0.2-0.2-0.2-0.5,0-0.7L7.3,8L4.1,4.9
	C4,4.7,4,4.3,4.2,4.2z"/>
</svg>
