<?xml version="1.0" encoding="utf-8"?>
<!-- Generator: Adobe Illustrator 26.5.0, SVG Export Plug-In . SVG Version: 6.00 Build 0)  -->
<svg version="1.1" id="Слой_1" xmlns="http://www.w3.org/2000/svg" xmlns:xlink="http://www.w3.org/1999/xlink" x="0px" y="0px"
	 viewBox="0 0 16 16" style="enable-background:new 0 0 16 16;" xml:space="preserve">
<style type="text/css">
	.st0{fill-rule:evenodd;clip-rule:evenodd;}
</style>
<path class="st0" d="M1.9,5.2C2.2,5.1,2.6,5,3,5h0.5C3.8,5,4,5.2,4,5.5S3.8,6,3.5,6H3C2.7,6,2.5,6.1,2.2,6.2S1.8,6.4,1.6,6.6
	C1.2,7,1,7.5,1,8v5c0,0.5,0.2,1,0.6,1.4c0.2,0.2,0.4,0.3,0.6,0.4C2.5,14.9,2.7,15,3,15h9c0.5,0,1-0.2,1.4-0.6S14,13.5,14,13V8
	c0-0.5-0.2-1-0.6-1.4C13,6.2,12.5,6,12,6h-0.5C11.2,6,11,5.8,11,5.5S11.2,5,11.5,5H12c0.8,0,1.6,0.3,2.1,0.9S15,7.2,15,8v5
	c0,0.8-0.3,1.6-0.9,2.1S12.8,16,12,16H3c-0.4,0-0.8-0.1-1.1-0.2c-0.4-0.2-0.7-0.4-1-0.6C0.3,14.6,0,13.8,0,13V8
	c0-0.8,0.3-1.6,0.9-2.1C1.2,5.6,1.5,5.4,1.9,5.2L1.9,5.2z"/>
<path d="M7.8,0.1C7.7,0,7.3,0,7.1,0.1l-3,3c-0.2,0.2-0.2,0.5,0,0.7C4.3,4,4.7,4,4.8,3.9L7,1.7v7.8C7,9.8,7.2,10,7.5,10S8,9.8,8,9.5
	V1.7l2.2,2.2c0.2,0.2,0.5,0.2,0.7,0c0.2-0.2,0.2-0.5,0-0.7L7.8,0.1L7.8,0.1z"/>
</svg>
