<?xml version="1.0" encoding="utf-8"?>
<!-- Generator: Adobe Illustrator 26.5.0, SVG Export Plug-In . SVG Version: 6.00 Build 0)  -->
<svg version="1.1" id="Слой_1" xmlns="http://www.w3.org/2000/svg" xmlns:xlink="http://www.w3.org/1999/xlink" x="0px" y="0px"
	 viewBox="0 0 16 16" style="enable-background:new 0 0 16 16;" xml:space="preserve">
<path d="M14,3H7.5L6.3,1.4C6.2,1.3,6.1,1.2,5.9,1.1C5.8,1,5.7,1,5.5,1H2C1.5,1,1,1.2,0.6,1.6C0.2,2,0,2.5,0,3v10
	c0,0.5,0.2,1,0.6,1.4C1,14.8,1.5,15,2,15h12c0.5,0,1-0.2,1.4-0.6S16,13.5,16,13V5c0-0.5-0.2-1-0.6-1.4S14.5,3,14,3z M6.7,3.6
	c0.1,0.1,0.2,0.2,0.4,0.3C7.2,4,7.3,4,7.5,4H14c0.3,0,0.5,0.1,0.7,0.3S15,4.7,15,5v8c0,0.3-0.1,0.5-0.3,0.7S14.3,14,14,14H2
	c-0.3,0-0.5-0.1-0.7-0.3C1.1,13.5,1,13.3,1,13V3c0-0.3,0.1-0.5,0.3-0.7C1.5,2.1,1.7,2,2,2h3.5L6.7,3.6z"/>
</svg>
