<?xml version="1.0" encoding="utf-8"?>
<!-- Generator: Adobe Illustrator 26.5.0, SVG Export Plug-In . SVG Version: 6.00 Build 0)  -->
<svg version="1.1" id="Слой_1" xmlns="http://www.w3.org/2000/svg" xmlns:xlink="http://www.w3.org/1999/xlink" x="0px" y="0px"
	 viewBox="0 0 16 16" style="enable-background:new 0 0 16 16;" xml:space="preserve">
<style type="text/css">
	.st0{fill-rule:evenodd;clip-rule:evenodd;}
</style>
<path class="st0" d="M0,2c0-0.5,0-0.7,0.1-0.9c0.1-0.5,0.5-0.9,1.1-1.1C1.3,0,1.5,0,2,0s0.7,0,0.9,0.1c0.5,0.1,0.9,0.5,1.1,1.1
	C4,1.3,4,1.5,4,2s0,0.7-0.1,0.9C3.8,3.4,3.4,3.8,2.9,3.9C2.7,4,2.5,4,2,4S1.3,4,1.1,3.9C0.6,3.8,0.2,3.4,0.1,2.9C0,2.7,0,2.5,0,2z
	 M2,3C1.8,3,1.6,3,1.5,3C1.4,3,1.4,3,1.4,3C1.2,2.9,1.1,2.8,1,2.6c0,0,0,0,0-0.1C1,2.4,1,2.2,1,2c0-0.2,0-0.4,0-0.5
	c0-0.1,0-0.1,0-0.1c0-0.2,0.2-0.3,0.4-0.4c0,0,0,0,0.1,0C1.6,1,1.8,1,2,1s0.4,0,0.5,0c0.1,0,0.1,0,0.1,0c0.2,0,0.3,0.2,0.4,0.4
	c0,0,0,0,0,0.1C3,1.6,3,1.8,3,2c0,0.2,0,0.4,0,0.5c0,0.1,0,0.1,0,0.1c0,0.2-0.2,0.3-0.4,0.4c0,0,0,0-0.1,0C2.4,3,2.2,3,2,3z"/>
<path class="st0" d="M5,14c0-0.5,0-0.7,0.1-0.9c0.1-0.5,0.5-0.9,1.1-1.1C6.3,12,6.5,12,7,12s0.7,0,0.9,0.1c0.5,0.1,0.9,0.5,1.1,1.1
	C9,13.3,9,13.5,9,14s0,0.7-0.1,0.9c-0.1,0.5-0.5,0.9-1.1,1.1C7.7,16,7.5,16,7,16s-0.7,0-0.9-0.1c-0.5-0.1-0.9-0.5-1.1-1.1
	C5,14.7,5,14.5,5,14z M7,15c-0.2,0-0.4,0-0.5,0c-0.1,0-0.1,0-0.1,0c-0.2,0-0.3-0.2-0.4-0.4c0,0,0,0,0-0.1c0-0.1,0-0.3,0-0.5
	s0-0.4,0-0.5c0-0.1,0-0.1,0-0.1c0-0.2,0.2-0.3,0.4-0.4c0,0,0,0,0.1,0c0.1,0,0.3,0,0.5,0s0.4,0,0.5,0c0.1,0,0.1,0,0.1,0
	c0.2,0,0.3,0.2,0.4,0.4c0,0,0,0,0,0.1c0,0.1,0,0.3,0,0.5s0,0.4,0,0.5c0,0.1,0,0.1,0,0.1c0,0.2-0.2,0.3-0.4,0.4c0,0,0,0-0.1,0
	C7.4,15,7.2,15,7,15z"/>
<path class="st0" d="M5.1,7.1C5,7.3,5,7.5,5,8s0,0.7,0.1,0.9c0.1,0.5,0.5,0.9,1.1,1.1C6.3,10,6.5,10,7,10s0.7,0,0.9-0.1
	c0.5-0.1,0.9-0.5,1.1-1.1C9,8.7,9,8.5,9,8c0-0.5,0-0.7-0.1-0.9C8.8,6.6,8.4,6.2,7.9,6C7.7,6,7.5,6,7,6S6.3,6,6.1,6
	C5.6,6.2,5.2,6.6,5.1,7.1z M6.5,9C6.6,9,6.8,9,7,9s0.4,0,0.5,0c0.1,0,0.1,0,0.1,0c0.2,0,0.3-0.2,0.4-0.4c0,0,0,0,0-0.1
	C8,8.4,8,8.2,8,8c0-0.2,0-0.4,0-0.5c0-0.1,0-0.1,0-0.1c0-0.2-0.2-0.3-0.4-0.4c0,0,0,0-0.1,0C7.4,7,7.2,7,7,7S6.6,7,6.5,7
	C6.4,7,6.4,7,6.4,7C6.2,7.1,6.1,7.2,6,7.4c0,0,0,0,0,0.1C6,7.6,6,7.8,6,8c0,0.2,0,0.4,0,0.5c0,0.1,0,0.1,0,0.1
	c0,0.2,0.2,0.3,0.4,0.4C6.4,9,6.4,9,6.5,9L6.5,9z"/>
<path d="M6.5,2C6.2,2,6,2.2,6,2.5S6.2,3,6.5,3h9C15.8,3,16,2.8,16,2.5S15.8,2,15.5,2H6.5z"/>
<path d="M1.5,5C1.8,5,2,5.2,2,5.5V8h0.5C2.8,8,3,8.2,3,8.5S2.8,9,2.5,9H2v5h0.5C2.8,14,3,14.2,3,14.5S2.8,15,2.5,15h-1
	C1.2,15,1,14.8,1,14.5v-9C1,5.2,1.2,5,1.5,5z"/>
<path d="M11.5,14c-0.3,0-0.5,0.2-0.5,0.5s0.2,0.5,0.5,0.5h4c0.3,0,0.5-0.2,0.5-0.5S15.8,14,15.5,14H11.5z"/>
<path d="M11.5,8C11.2,8,11,8.2,11,8.5S11.2,9,11.5,9h4C15.8,9,16,8.8,16,8.5S15.8,8,15.5,8H11.5z"/>
</svg>
