<?xml version="1.0" encoding="utf-8"?>
<!-- Generator: Adobe Illustrator 26.5.0, SVG Export Plug-In . SVG Version: 6.00 Build 0)  -->
<svg version="1.1" id="Слой_1" xmlns="http://www.w3.org/2000/svg" xmlns:xlink="http://www.w3.org/1999/xlink" x="0px" y="0px"
	 viewBox="0 0 800 800" style="enable-background:new 0 0 800 800;" xml:space="preserve">
<style type="text/css">
	.st0{fill-rule:evenodd;clip-rule:evenodd;stroke:#000000;stroke-miterlimit:10;}
	.st1{stroke:#000000;stroke-width:33;stroke-linecap:round;stroke-linejoin:round;stroke-miterlimit:133.3333;}
</style>
<g>
	<g id="Слой_2_00000113340038462633392850000006234378127887950215_">
		<g id="Слой_2_00000015339858334953216020000013466522642056336778_">
		</g>
		<g id="Слой_2_00000142861670393565118900000002679790205223402130_">
		</g>
		<g id="Слой_2_00000066473371933530946800000005968293767284861863_">
		</g>
		<g id="Слой_2_00000118394905192526458840000015610686970325238422_">
		</g>
		<g id="Слой_2_00000060005885518013452190000012271380988650038415_">
		</g>
		<g id="Слой_2_00000137100402946578967560000001796527882567693223_">
		</g>
		<g id="Слой_2_00000068657852511423165830000001614621599624060855_">
		</g>
		<g id="Слой_2_00000088131788231032872080000001688524028473951644_">
		</g>
		<g id="Слой_2_00000076593026092154319710000005015524752521512611_">
		</g>
		<g id="Слой_2_00000034072803870643713770000010201422853874453928_">
		</g>
		<g id="Слой_2_00000046341486316944369360000000111136797783814327_">
		</g>
		<g id="Слой_2_00000071561002613095054230000009638179922839935628_">
		</g>
		<g id="Слой_2_00000179640925597424345590000016878244385863176876_">
		</g>
	</g>
	<g id="Слой_1_00000060010263867973160380000004577106214287577263_">
		<g id="SVGRepo_bgCarrier">
		</g>
		<g id="SVGRepo_tracerCarrier">
		</g>
		<g id="SVGRepo_iconCarrier">
			<path class="st0" d="M177,64.1c0.4,0,0.8,0,1.1,0h134.5c14.8,0,27.5,0,37.7,1.4c10.9,1.5,21.4,4.8,29.9,13.3s11.8,19,13.3,29.9
				c1.4,10.2,1.4,22.9,1.4,37.7v16.9c0,9.2-7.5,16.7-16.7,16.7s-16.7-7.5-16.7-16.7v-15.9c0-16.2-0.1-26.7-1.1-34.4
				c-1-7.3-2.6-9.5-3.8-10.8c-1.3-1.3-3.6-2.9-10.8-3.8c-7.7-1.1-18.2-1.1-34.4-1.1h-50v283.5c0,9.2-7.5,16.7-16.7,16.7
				S228,390,228,380.8V97.5h-50c-16.2,0-26.7,0.1-34.4,1.1c-7.3,1-9.5,2.6-10.8,3.8c-1.3,1.3-2.9,3.6-3.8,10.8
				c-1.1,7.7-1.1,18.2-1.1,34.4v15.7c0,9.2-7.5,16.7-16.7,16.7s-16.7-7.5-16.7-16.7v-15.9c0-0.4,0-0.8,0-1.1c0-14.8,0-27.5,1.4-37.7
				c1.5-11,4.8-21.4,13.3-29.9s19-11.8,29.9-13.3C149.5,64.1,162.2,64.1,177,64.1z"/>
			<path class="st1" d="M161.4,381h166.8"/>
		</g>
	</g>
	<path class="st1" d="M455.5,164.7h250"/>
	<path class="st1" d="M455.5,272.6h250"/>
	<path class="st1" d="M455.5,380.6h250"/>
	<path class="st1" d="M102.6,488.5H703"/>
	<path class="st1" d="M102.6,596.5H703"/>
	<path class="st1" d="M100,704.5h600.4"/>
</g>
</svg>
