<?xml version="1.0" encoding="utf-8"?>
<!-- Generator: Adobe Illustrator 26.5.0, SVG Export Plug-In . SVG Version: 6.00 Build 0)  -->
<svg version="1.1" id="Слой_1" xmlns="http://www.w3.org/2000/svg" xmlns:xlink="http://www.w3.org/1999/xlink" x="0px" y="0px"
	 viewBox="0 0 16 16" style="enable-background:new 0 0 16 16;" xml:space="preserve">
<style type="text/css">
	.st0{fill-rule:evenodd;clip-rule:evenodd;}
</style>
<path class="st0" d="M15,4.1c0-0.4-0.2-0.8-0.4-1.1l-2.6-2.6C11.7,0.2,11.3,0,10.9,0H6C4.6,0,3.9,0,3.4,0.3C2.9,0.5,2.5,0.9,2.3,1.4
	C2,1.9,2,2.6,2,4L1.5,4C0.7,4,0,4.7,0,5.5v9C0,15.3,0.7,16,1.5,16h11.1c0.6,0,1.2-0.4,1.4-1l1.8-5.3C15.9,9.3,15.7,9,15.3,9H4.5
	C4.2,9,3.9,9.2,3.8,9.5L2,15H1.5C1.2,15,1,14.8,1,14.5v-9C1,5.2,1.2,5,1.5,5H2v4.5C2,9.8,2.2,10,2.5,10S3,9.8,3,9.5V4
	c0-0.7,0-1.2,0-1.6c0-0.4,0.1-0.5,0.1-0.6c0.1-0.3,0.4-0.5,0.7-0.7C3.9,1.1,4.1,1,4.4,1C4.8,1,5.3,1,6,1h4v3.5C10,4.8,10.2,5,10.5,5
	H14v2.5C14,7.8,14.2,8,14.5,8S15,7.8,15,7.5L15,4.1L15,4.1z M11,4V1l3,3H11L11,4z"/>
</svg>
