<?xml version="1.0" encoding="utf-8"?>
<!-- Generator: Adobe Illustrator 26.5.0, SVG Export Plug-In . SVG Version: 6.00 Build 0)  -->
<svg version="1.1" id="Слой_1" xmlns="http://www.w3.org/2000/svg" xmlns:xlink="http://www.w3.org/1999/xlink" x="0px" y="0px"
	 viewBox="0 0 16 16" style="enable-background:new 0 0 16 16;" xml:space="preserve">
<path d="M12.6,0c0.7,0,1.4,0.3,1.9,0.8l0.8,0.8C15.7,2,16,2.7,16,3.4c0,0.7-0.3,1.4-0.8,1.9L4.7,15.8C4.6,15.9,4.5,16,4.4,16H0.5
	C0.2,16,0,15.8,0,15.5v-3.8c0-0.1,0.1-0.3,0.1-0.4L10.7,0.8C11.2,0.3,11.9,0,12.6,0L12.6,0z M9.7,3.2L1,12v3h3.2l8.6-8.7
	C12.8,6.3,9.7,3.2,9.7,3.2z M12.6,1c-0.4,0-0.8,0.2-1.2,0.5l-1,1l3.1,3.1l1-1c0.3-0.3,0.4-0.6,0.5-1l0-0.2c0-0.4-0.2-0.8-0.5-1.2
	l-0.8-0.8C13.4,1.2,13,1,12.6,1L12.6,1z"/>
</svg>
