<?xml version="1.0" encoding="utf-8"?>
<!-- Generator: Adobe Illustrator 26.5.0, SVG Export Plug-In . SVG Version: 6.00 Build 0)  -->
<svg version="1.1" id="Слой_1" xmlns="http://www.w3.org/2000/svg" xmlns:xlink="http://www.w3.org/1999/xlink" x="0px" y="0px"
	 viewBox="0 0 16 16" style="enable-background:new 0 0 16 16;" xml:space="preserve">
<style type="text/css">
	.st0{fill-rule:evenodd;clip-rule:evenodd;}
</style>
<path class="st0" d="M5,3C3.9,3,3,3.9,3,5s0.9,2,2,2s2-0.9,2-2S6.1,3,5,3z M4,5c0-0.6,0.4-1,1-1s1,0.4,1,1S5.6,6,5,6S4,5.6,4,5z"/>
<path class="st0" d="M3.5,1C2.1,1,1,2.1,1,3.5v9C1,13.9,2.1,15,3.5,15h9c1.4,0,2.5-1.1,2.5-2.5v-9C15,2.1,13.9,1,12.5,1H3.5z
	 M14,3.5v6.8l-3.1-3.2c-0.2-0.2-0.5-0.2-0.7,0L3.3,14C2.6,13.9,2,13.3,2,12.5v-9C2,2.7,2.7,2,3.5,2h9C13.3,2,14,2.7,14,3.5L14,3.5z
	 M12.5,14H4.7l5.8-5.8l3.5,3.5v0.8C14,13.3,13.3,14,12.5,14L12.5,14z"/>
</svg>
