<?xml version="1.0" encoding="utf-8"?>
<!-- Generator: Adobe Illustrator 26.5.0, SVG Export Plug-In . SVG Version: 6.00 Build 0)  -->
<svg version="1.1" id="Слой_1" xmlns="http://www.w3.org/2000/svg" xmlns:xlink="http://www.w3.org/1999/xlink" x="0px" y="0px"
	 viewBox="0 0 16 16" style="enable-background:new 0 0 16 16;" xml:space="preserve">
<style type="text/css">
	.st0{fill-rule:evenodd;clip-rule:evenodd;}
</style>
<path class="st0" d="M3.5,1C2.1,1,1,2.1,1,3.5v7.2c0,0.7,0.3,1.3,0.7,1.8l1.8,1.8C4,14.7,4.7,15,5.3,15h7.2c1.4,0,2.5-1.1,2.5-2.5
	v-9C15,2.1,13.9,1,12.5,1L3.5,1L3.5,1z M9,11H5.5C5.2,11,5,11.2,5,11.5V14c0.1,0,0.2,0,0.3,0H9L9,11L9,11z M2,3.5C2,2.7,2.7,2,3.5,2
	H4v4.5C4,7.3,4.7,8,5.5,8h5C11.3,8,12,7.3,12,6.5V2h0.5C13.3,2,14,2.7,14,3.5v9c0,0.8-0.7,1.5-1.5,1.5H12v-2.5
	c0-0.8-0.7-1.5-1.5-1.5h-5C4.7,10,4,10.7,4,11.5v1.8l-1.6-1.6C2.2,11.4,2,11.1,2,10.7L2,3.5L2,3.5z M11,2H5v4.5C5,6.8,5.2,7,5.5,7h5
	C10.8,7,11,6.8,11,6.5V2z"/>
</svg>
