<?xml version="1.0" encoding="utf-8"?>
<!-- Generator: Adobe Illustrator 26.5.0, SVG Export Plug-In . SVG Version: 6.00 Build 0)  -->
<svg version="1.1" id="myImg" xmlns="http://www.w3.org/2000/svg" xmlns:xlink="http://www.w3.org/1999/xlink" x="0px" y="0px"
	 viewBox="0 0 1000 1000" style="enable-background:new 0 0 1000 1000;" xml:space="preserve">
<g>
	<g>
		<rect x="145.7" y="341" width="93.8" height="90.9"/>
		<rect x="145.7" y="493.4" width="93.8" height="90.9"/>
		<rect x="282.2" y="341" width="371.1" height="90.9"/>
		<rect x="282.2" y="493.4" width="371.1" height="90.9"/>
		<path d="M76.3,850.1V280.4h713.6v299.1c8.5-1,17.1-1.7,25.9-1.7c13.8,0,27.3,1.7,40.4,4.2V114.5c0-24.4-19.9-44.2-44.2-44.2H54.2
			C29.8,70.2,10,90,10,114.5v757.8c0,24.4,19.8,44.2,44.2,44.2H608c-25.5-25.6-44.5-50.1-56.3-66.4H76.3z"/>
		<path d="M767.8,617.1c-122.7,0-222.3,156.3-222.3,156.3s99.6,156.3,222.3,156.3S990,773.4,990,773.4S890.5,617.1,767.8,617.1z
			 M767.8,848.3c-41.4,0-74.9-33.6-74.9-74.8c0-41.4,33.5-74.9,74.9-74.9c41.3,0,74.8,33.6,74.8,74.9
			C842.7,814.8,809.1,848.3,767.8,848.3z"/>
	</g>
</g>
</svg>
