<?xml version="1.0" encoding="utf-8"?>
<!-- Generator: Adobe Illustrator 26.5.0, SVG Export Plug-In . SVG Version: 6.00 Build 0)  -->
<svg version="1.1" id="Слой_1" xmlns="http://www.w3.org/2000/svg" xmlns:xlink="http://www.w3.org/1999/xlink" x="0px" y="0px"
	 viewBox="0 0 800 800" style="enable-background:new 0 0 800 800;" xml:space="preserve">
<style type="text/css">
	.st0{fill:none;stroke:#000000;stroke-width:66.6667;stroke-linecap:round;stroke-linejoin:round;stroke-miterlimit:133.3333;}
</style>
<path class="st0" d="M300,133.3v533.3 M206.7,666.7h386.7c37.3,0,56,0,70.3-7.3c12.5-6.4,22.7-16.6,29.1-29.1
	c7.2-14.3,7.2-33,7.2-70.3V240c0-37.3,0-56-7.3-70.3c-6.4-12.5-16.6-22.7-29.1-29.1c-14.3-7.3-32.9-7.3-70.3-7.3H206.7
	c-37.3,0-56,0-70.3,7.3c-12.5,6.4-22.7,16.6-29.1,29.1c-7.3,14.3-7.3,33-7.3,70.3v320c0,37.3,0,56,7.3,70.3
	c6.4,12.5,16.6,22.7,29.1,29.1C150.7,666.7,169.3,666.7,206.7,666.7z"/>
</svg>
