<?xml version="1.0" encoding="utf-8"?>
<!-- Generator: Adobe Illustrator 26.5.0, SVG Export Plug-In . SVG Version: 6.00 Build 0)  -->
<svg version="1.1" id="Слой_1" xmlns="http://www.w3.org/2000/svg" xmlns:xlink="http://www.w3.org/1999/xlink" x="0px" y="0px"
	 viewBox="0 0 16 16" style="enable-background:new 0 0 16 16;" xml:space="preserve">
<style type="text/css">
	.st0{fill-rule:evenodd;clip-rule:evenodd;}
</style>
<path class="st0" d="M16,4.6C16,4.5,16,4.5,16,4.6c0-0.1,0-0.2,0-0.2c0,0,0,0,0-0.1c0-0.2-0.1-0.3-0.2-0.4c-0.1-0.2-0.2-0.3-0.5-0.5
	l-2.6-2.6c-0.3-0.3-0.4-0.4-0.5-0.5C12,0.1,11.9,0.1,11.7,0c0,0,0,0-0.1,0c-0.1,0-0.1,0-0.2,0c0,0,0,0-0.1,0c-0.1,0-0.2,0-0.4,0H8.8
	C7.1,0,6.3,0,5.6,0.3c-0.6,0.3-1,0.7-1.3,1.3c-0.1,0.3-0.2,0.6-0.3,1c0.3-0.1,0.7-0.1,1-0.1c0-0.2,0.1-0.3,0.1-0.4
	c0.2-0.4,0.5-0.7,0.9-0.9C6.3,1.1,6.5,1.1,6.9,1c0.4,0,1,0,1.9,0H11v3.5C11,4.8,11.2,5,11.5,5H15v6.2c0,0.9,0,1.4,0,1.9
	c0,0.4-0.1,0.7-0.2,0.8c-0.2,0.4-0.5,0.7-0.9,0.9c-0.2,0.1-0.4,0.1-0.8,0.2c-0.4,0-1,0-1.9,0H8.8c-0.9,0-1.4,0-1.9,0
	c-0.4,0-0.7-0.1-0.8-0.2c-0.4-0.2-0.7-0.5-0.9-0.8l-0.6,0.9c0.3,0.3,0.6,0.6,1,0.8C6.3,16,7.1,16,8.8,16h2.4c1.7,0,2.5,0,3.2-0.3
	c0.6-0.3,1-0.7,1.3-1.3c0.3-0.6,0.3-1.5,0.3-3.2V5C16,4.8,16,4.7,16,4.6L16,4.6z M12,1.4L14.6,4H12V1.4z"/>
<path d="M8.5,5.5L6.3,4.3C5,3.6,3.4,4.1,2.6,5.3L2.2,5.9C2.2,6,2.2,6.1,2.3,6c0.7-0.2,1.5-0.1,2.2,0.2C5,6.5,5.2,7.2,4.9,7.7
	L3.5,9.8C3.3,9.7,2.9,9.8,2.8,10l-2.6,4.1c-0.4,0.6-0.2,1.4,0.5,1.7c0.7,0.3,1.5,0.1,1.9-0.5l2.6-4.1C5.3,11,5.2,10.7,5,10.6
	l1.8-2.8C6.8,7.6,7,7.6,7.1,7.6c0.1,0.1,0.3,0,0.4-0.1c0.1-0.1,0.2-0.2,0.4-0.1l0.5,0.3C8.5,7.8,8.5,7.9,8.5,8
	c-0.1,0.1,0,0.3,0.1,0.3l0.9,0.5c0.1,0.1,0.3,0,0.4-0.1L11,7.1c0.1-0.1,0-0.3-0.1-0.3L9.9,6.2c-0.1-0.1-0.3,0-0.4,0.1
	C9.5,6.4,9.3,6.5,9.2,6.4L8.7,6.1C8.6,6.1,8.5,5.9,8.6,5.8C8.7,5.7,8.6,5.5,8.5,5.5L8.5,5.5z"/>
</svg>
