<?xml version="1.0" encoding="utf-8"?>
<!-- Generator: Adobe Illustrator 26.5.0, SVG Export Plug-In . SVG Version: 6.00 Build 0)  -->
<svg version="1.1" id="Слой_1" xmlns="http://www.w3.org/2000/svg" xmlns:xlink="http://www.w3.org/1999/xlink" x="0px" y="0px"
	 viewBox="0 0 16 16" style="enable-background:new 0 0 16 16;" xml:space="preserve">
<style type="text/css">
	.st0{fill-rule:evenodd;clip-rule:evenodd;}
</style>
<path d="M4.5,5C4.2,5,4,5.2,4,5.5S4.2,6,4.5,6h7C11.8,6,12,5.8,12,5.5S11.8,5,11.5,5H4.5z"/>
<path d="M4,8.5C4,8.2,4.2,8,4.5,8h7C11.8,8,12,8.2,12,8.5S11.8,9,11.5,9h-7C4.2,9,4,8.8,4,8.5z"/>
<path d="M4.5,11C4.2,11,4,11.2,4,11.5S4.2,12,4.5,12h4C8.8,12,9,11.8,9,11.5S8.8,11,8.5,11H4.5z"/>
<path class="st0" d="M3.5,0C3.2,0,3,0.2,3,0.5v0.7c-0.1,0-0.2,0.1-0.4,0.1c-0.6,0.3-1,0.7-1.3,1.3C1,3.3,1,4.1,1,5.8v5.4
	c0,1.7,0,2.5,0.3,3.2c0.3,0.6,0.7,1,1.3,1.3C3.3,16,4.1,16,5.8,16h4.4c1.7,0,2.5,0,3.2-0.3c0.6-0.3,1-0.7,1.3-1.3
	c0.3-0.6,0.3-1.5,0.3-3.2V5.8c0-1.7,0-2.5-0.3-3.2c-0.3-0.6-0.7-1-1.3-1.3c-0.1-0.1-0.2-0.1-0.4-0.1V0.5C13,0.2,12.8,0,12.5,0
	S12,0.2,12,0.5V1c-0.5,0-1.1,0-1.8,0H10V0.5C10,0.2,9.8,0,9.5,0S9,0.2,9,0.5V1H7V0.5C7,0.2,6.8,0,6.5,0S6,0.2,6,0.5V1H5.8
	C5,1,4.5,1,4,1V0.5C4,0.2,3.8,0,3.5,0L3.5,0z M9,2.5V2H7v0.5C7,2.8,6.8,3,6.5,3S6,2.8,6,2.5V2H5.8C5,2,4.4,2,4,2v0.5
	C4,2.8,3.8,3,3.5,3S3,2.8,3,2.5V2.3C2.7,2.5,2.4,2.7,2.2,3.1C2.1,3.2,2.1,3.5,2,3.9c0,0.5,0,1,0,1.9v5.4c0,0.9,0,1.4,0,1.9
	c0,0.4,0.1,0.7,0.2,0.8c0.2,0.4,0.5,0.7,0.9,0.9c0.2,0.1,0.4,0.1,0.8,0.2c0.5,0,1,0,1.9,0h4.4c0.9,0,1.4,0,1.9,0
	c0.4,0,0.7-0.1,0.8-0.2c0.4-0.2,0.7-0.5,0.9-0.9c0.1-0.2,0.1-0.4,0.2-0.8c0-0.4,0-1,0-1.9V5.8c0-0.9,0-1.4,0-1.9
	c0-0.4-0.1-0.7-0.2-0.8c-0.2-0.3-0.4-0.6-0.8-0.8v0.2C13,2.8,12.8,3,12.5,3S12,2.8,12,2.5V2c-0.4,0-1,0-1.8,0H10v0.5
	C10,2.8,9.8,3,9.5,3S9,2.8,9,2.5L9,2.5z"/>
</svg>
