<?xml version="1.0" encoding="utf-8"?>
<!-- Generator: Adobe Illustrator 26.5.0, SVG Export Plug-In . SVG Version: 6.00 Build 0)  -->
<svg version="1.1" id="Слой_1" xmlns="http://www.w3.org/2000/svg" xmlns:xlink="http://www.w3.org/1999/xlink" x="0px" y="0px"
	 viewBox="0 0 800 800" style="enable-background:new 0 0 800 800;" xml:space="preserve">
<style type="text/css">
	.st0{fill-rule:evenodd;clip-rule:evenodd;stroke:#000000;stroke-miterlimit:10;}
	.st1{stroke:#000000;stroke-width:66.6667;stroke-linecap:round;stroke-linejoin:round;stroke-miterlimit:133.3333;}
</style>
<g id="SVGRepo_bgCarrier">
</g>
<g id="SVGRepo_tracerCarrier">
</g>
<g id="SVGRepo_iconCarrier">
	<path class="st0" d="M264.5,66.7c0.7,0,1.5,0,2.2,0h268.9c29.5,0,55,0,75.4,2.7c21.8,2.9,42.8,9.6,59.8,26.6
		c17,17,23.6,37.9,26.6,59.8c2.7,20.4,2.7,45.8,2.7,75.4V265c0,18.4-14.9,33.3-33.3,33.3s-33.3-14.9-33.3-33.3v-31.7
		c0-32.4-0.1-53.3-2.1-68.7c-1.9-14.5-5.1-19-7.6-21.5c-2.5-2.5-7.1-5.7-21.5-7.6c-15.4-2.1-36.3-2.1-68.7-2.1h-100V700
		c0,18.4-14.9,33.3-33.3,33.3c-18.4,0-33.3-14.9-33.3-33.3V133.3h-100c-32.4,0-53.3,0.1-68.7,2.1c-14.5,1.9-19,5.1-21.5,7.6
		c-2.5,2.5-5.7,7.1-7.6,21.5c-2.1,15.4-2.1,36.3-2.1,68.7V265c0,18.4-14.9,33.3-33.3,33.3c-18.4,0-33.3-14.9-33.3-33.3v-31.7
		c0-0.7,0-1.5,0-2.2c0-29.5,0-55,2.7-75.4c2.9-21.9,9.6-42.8,26.6-59.8c17-17,37.9-23.6,59.8-26.6C209.5,66.7,234.9,66.7,264.5,66.7
		z"/>
	<path class="st1" d="M233.3,700h333.3"/>
</g>
</svg>
