<?xml version="1.0" encoding="utf-8"?>
<!-- Generator: Adobe Illustrator 26.5.0, SVG Export Plug-In . SVG Version: 6.00 Build 0)  -->
<svg version="1.1" id="Слой_1" xmlns="http://www.w3.org/2000/svg" xmlns:xlink="http://www.w3.org/1999/xlink" x="0px" y="0px"
	 viewBox="0 0 16 16" style="enable-background:new 0 0 16 16;" xml:space="preserve">
<style type="text/css">
	.st0{fill-rule:evenodd;clip-rule:evenodd;}
</style>
<path d="M6.5,7C6.8,7,7,7.2,7,7.5v4C7,11.8,6.8,12,6.5,12S6,11.8,6,11.5v-4C6,7.2,6.2,7,6.5,7z"/>
<path d="M10,7.5C10,7.2,9.8,7,9.5,7S9,7.2,9,7.5v4C9,11.8,9.2,12,9.5,12s0.5-0.2,0.5-0.5V7.5z"/>
<path class="st0" d="M8.1,0H7.9c-0.4,0-0.7,0-1,0C6.6,0,6.3,0.1,6.1,0.2C5.7,0.4,5.4,0.7,5.2,1.1C5.1,1.3,5,1.6,5,1.9
	c0,0.3,0,0.6,0,1V3H1.5C1.2,3,1,3.2,1,3.5S1.2,4,1.5,4H2l0.6,7.2c0.1,0.8,0.1,1.4,0.2,1.8c0.1,0.5,0.2,0.9,0.4,1.3
	c0.4,0.6,0.9,1.1,1.5,1.4C5.1,15.8,5.5,15.9,6,16c0.5,0,1.1,0,1.8,0h0.2c0.8,0,1.4,0,1.9,0c0.5,0,0.9-0.1,1.3-0.3
	c0.6-0.3,1.2-0.8,1.5-1.4c0.2-0.4,0.3-0.8,0.4-1.3c0.1-0.5,0.1-1.1,0.2-1.8L14,4h0.5C14.8,4,15,3.8,15,3.5S14.8,3,14.5,3H11V2.9
	c0-0.4,0-0.7,0-1c0-0.3-0.1-0.5-0.2-0.8c-0.2-0.4-0.5-0.7-0.9-0.9C9.7,0.1,9.4,0,9.1,0C8.9,0,8.5,0,8.1,0L8.1,0z M3,4l0.6,7.1
	c0.1,0.8,0.1,1.3,0.2,1.8c0.1,0.4,0.2,0.7,0.3,0.9c0.3,0.4,0.6,0.8,1.1,1c0.2,0.1,0.5,0.2,0.9,0.2c0.4,0,1,0,1.8,0h0.2
	c0.8,0,1.4,0,1.8,0c0.4,0,0.7-0.1,0.9-0.2c0.5-0.2,0.8-0.6,1.1-1c0.1-0.2,0.2-0.5,0.3-0.9c0.1-0.4,0.1-1,0.2-1.8L13,4L3,4L3,4z M6,3
	h4V2.9c0-0.4,0-0.7,0-0.9c0-0.2-0.1-0.3-0.1-0.4C9.8,1.4,9.6,1.2,9.5,1.1C9.4,1.1,9.3,1,9,1C8.8,1,8.5,1,8.1,1H7.9C7.5,1,7.2,1,7,1
	C6.7,1,6.6,1.1,6.5,1.1C6.4,1.2,6.2,1.4,6.1,1.5C6.1,1.6,6,1.7,6,2C6,2.2,6,2.5,6,3L6,3z"/>
</svg>
