<?xml version="1.0" encoding="utf-8"?>
<!-- Generator: Adobe Illustrator 26.5.0, SVG Export Plug-In . SVG Version: 6.00 Build 0)  -->
<svg version="1.1" id="Слой_1" xmlns="http://www.w3.org/2000/svg" xmlns:xlink="http://www.w3.org/1999/xlink" x="0px" y="0px"
	 viewBox="0 0 16 16" style="enable-background:new 0 0 16 16;" xml:space="preserve">
<style type="text/css">
	.st0{fill-rule:evenodd;clip-rule:evenodd;}
</style>
<path class="st0" d="M14,16v-2c0-0.2,0-0.3,0-0.4c0,0,0,0,0-0.1c0-0.1,0-0.1,0-0.2c0,0,0,0,0-0.1c0-0.2-0.1-0.3-0.2-0.4
	c-0.1-0.2-0.2-0.3-0.5-0.5l-2.6-2.6c-0.3-0.3-0.4-0.4-0.5-0.5C10,9.1,9.9,9.1,9.7,9c0,0,0,0-0.1,0C9.6,9,9.6,9,9.5,9c0,0,0,0-0.1,0
	C9.3,9,9.2,9,9,9H6.8C5.1,9,4.3,9,3.6,9.3c-0.6,0.3-1,0.7-1.3,1.3C2,11.3,2,12.1,2,13.8V16h1v-2.2c0-0.9,0-1.4,0-1.9
	c0-0.4,0.1-0.7,0.2-0.8c0.2-0.4,0.5-0.7,0.9-0.9c0.2-0.1,0.4-0.1,0.8-0.2c0.4,0,1,0,1.9,0H9v3.5C9,13.8,9.2,14,9.5,14H13v2L14,16
	L14,16z M10,10.4l2.6,2.6H10V10.4z"/>
<path d="M16,3.5c0,0.1,0,0.1,0,0.2s-0.1,0.1-0.1,0.2l-3,3c-0.2,0.2-0.5,0.2-0.7,0s-0.2-0.5,0-0.7L14.3,4H1.7l2.2,2.2
	C4,6.3,4,6.7,3.8,6.9C3.7,7,3.3,7,3.1,6.9l-3-3c0,0-0.1-0.1-0.1-0.2c0-0.1,0-0.1,0-0.2c0-0.1,0-0.1,0-0.2s0.1-0.1,0.1-0.2l3-3
	C3.3,0,3.7,0,3.8,0.1C4,0.3,4,0.7,3.8,0.9L1.7,3h12.6l-2.1-2.2c-0.2-0.2-0.2-0.5,0-0.7s0.5-0.2,0.7,0l3,3c0,0,0.1,0.1,0.1,0.2
	C16,3.4,16,3.4,16,3.5z"/>
</svg>
