<?xml version="1.0" encoding="utf-8"?>
<!-- Generator: Adobe Illustrator 26.5.0, SVG Export Plug-In . SVG Version: 6.00 Build 0)  -->
<svg version="1.1" id="Слой_1" xmlns="http://www.w3.org/2000/svg" xmlns:xlink="http://www.w3.org/1999/xlink" x="0px" y="0px"
	 viewBox="0 0 16 16" style="enable-background:new 0 0 16 16;" xml:space="preserve">
<style type="text/css">
	.st0{fill-rule:evenodd;clip-rule:evenodd;}
</style>
<path d="M6,6V4.5C6,4.2,6.2,4,6.5,4S7,4.2,7,4.5V6h1.5C8.8,6,9,6.2,9,6.5S8.8,7,8.5,7H7v1.5C7,8.8,6.8,9,6.5,9S6,8.8,6,8.5V7H4.5
	C4.2,7,4,6.8,4,6.5S4.2,6,4.5,6H6z"/>
<path class="st0" d="M10,10.7C9,11.5,7.8,12,6.5,12C3.4,12,1,9.5,1,6.5S3.4,1,6.5,1S12,3.4,12,6.5c0,1.3-0.5,2.6-1.3,3.5l3.9,3.9
	c0.2,0.2,0.2,0.5,0,0.7s-0.5,0.2-0.7,0L10,10.7L10,10.7z M11,6.5C11,9,9,11,6.5,11S2,9,2,6.5S4,2,6.5,2S11,4,11,6.5z"/>
</svg>
